<?xml version="1.0" standalone="no"?>
<!DOCTYPE svg PUBLIC "-//W3C//DTD SVG 20010904//EN"
 "http://www.w3.org/TR/2001/REC-SVG-20010904/DTD/svg10.dtd">
<svg version="1.0" xmlns="http://www.w3.org/2000/svg"
 width="192.000000pt" height="192.000000pt" viewBox="0 0 192.000000 192.000000"
 preserveAspectRatio="xMidYMid meet">
<metadata>
Created by potrace 1.11, written by Peter Selinger 2001-2013
</metadata>
<g transform="translate(0.000000,192.000000) scale(0.100000,-0.100000)"
fill="#000000" stroke="none">
<path d="M559 1666 l-404 -232 -1 -472 -1 -472 49 -30 c27 -17 50 -30 52 -30
2 0 113 -63 246 -140 134 -77 244 -140 246 -140 1 0 48 -27 103 -60 56 -33
106 -60 113 -60 6 0 74 37 152 81 77 45 166 95 196 112 30 16 67 38 82 48 14
11 29 19 33 19 3 0 30 16 60 35 30 19 55 32 55 28 0 -3 8 1 18 9 9 9 35 26 57
38 22 12 67 37 100 56 l60 35 -2 472 -2 472 -38 20 c-21 12 -81 46 -133 77
-52 31 -113 66 -135 78 -22 12 -53 29 -70 39 -16 10 -50 29 -75 43 -25 14
-115 66 -201 115 l-156 90 -404 -231z"/>
</g>
</svg>
